<svg width="22" height="23" viewBox="0 0 22 23" fill="none" xmlns="http://www.w3.org/2000/svg">
<g clip-path="url(#clip0_52_64)">
<path d="M22 11.4479C22 5.30735 17.0751 0.329346 11 0.329346C4.92492 0.329346 0 5.30735 0 11.4479C0 16.6621 3.55168 21.0374 8.34284 22.2391V14.8457H6.07464V11.4479H8.34284V9.98382C8.34284 6.1995 10.0373 4.44544 13.713 4.44544C14.41 4.44544 15.6125 4.58375 16.1044 4.72162V7.80146C15.8448 7.77389 15.3938 7.7601 14.8337 7.7601C13.0302 7.7601 12.3332 8.45079 12.3332 10.2462V11.4479H15.9262L15.3089 14.8457H12.3332V22.4851C17.78 21.8202 22.0004 17.1326 22.0004 11.4479H22Z" fill="#0866FF"/>
<path d="M15.3085 14.8457L15.9258 11.4479H12.3328V10.2462C12.3328 8.45079 13.0297 7.7601 14.8333 7.7601C15.3934 7.7601 15.8444 7.77389 16.104 7.80146V4.72162C15.6121 4.5833 14.4096 4.44543 13.7126 4.44543C10.0368 4.44543 8.3424 6.1995 8.3424 9.98381V11.4479H6.0742V14.8457H8.3424V22.2391C9.19336 22.4526 10.0835 22.5665 10.9996 22.5665C11.4506 22.5665 11.8954 22.5384 12.3323 22.4851V14.8457H15.308H15.3085Z" fill="white"/>
</g>
<defs>
<clipPath id="clip0_52_64">
<rect width="22" height="22.2371" fill="white" transform="translate(0 0.329346)"/>
</clipPath>
</defs>
</svg>
