<svg width="22" height="23" viewBox="0 0 22 23" fill="none" xmlns="http://www.w3.org/2000/svg">
<g clip-path="url(#clip0_52_65)">
<path d="M10.9998 9.77959V14.0855H16.9198C16.6599 15.4703 15.8798 16.6428 14.7098 17.4312L18.2798 20.2311C20.3598 18.2905 21.5598 15.44 21.5598 12.0539C21.5598 11.2656 21.4898 10.5074 21.3598 9.77971L10.9998 9.77959Z" fill="#4285F4"/>
<path d="M4.83512 13.9174L4.02996 14.5404L1.17991 16.7843C2.9899 20.413 6.69963 22.9197 10.9996 22.9197C13.9695 22.9197 16.4595 21.9292 18.2795 20.2311L14.7095 17.4312C13.7295 18.0983 12.4795 18.5027 10.9996 18.5027C8.13961 18.5027 5.70968 16.5519 4.83962 13.9239L4.83512 13.9174Z" fill="#34A853"/>
<path d="M1.17991 6.81804C0.429955 8.31393 0 10.002 0 11.8011C0 13.6003 0.429955 15.2883 1.17991 16.7842C1.17991 16.7942 4.83998 13.9136 4.83998 13.9136C4.61998 13.2465 4.48994 12.539 4.48994 11.801C4.48994 11.063 4.61998 10.3555 4.83998 9.68842L1.17991 6.81804Z" fill="#FBBC05"/>
<path d="M10.9998 5.10982C12.6198 5.10982 14.0598 5.67584 15.2098 6.7675L18.3598 3.58359C16.4498 1.78443 13.9699 0.682617 10.9998 0.682617C6.69985 0.682617 2.9899 3.17924 1.17991 6.81805L4.83986 9.68866C5.70981 7.06061 8.13984 5.10982 10.9998 5.10982Z" fill="#EA4335"/>
</g>
<defs>
<clipPath id="clip0_52_65">
<rect width="22" height="22.2371" fill="white" transform="translate(0 0.682617)"/>
</clipPath>
</defs>
</svg>
