<svg width="20" height="20" viewBox="0 0 20 20" fill="none" xmlns="http://www.w3.org/2000/svg">
<path d="M11.3915 9.29208C11.6459 10.1564 11.8444 11.0228 12.0051 11.9092L12.1581 12.8057L12.3635 14.8291C12.2013 14.7797 12.0205 14.7518 11.8538 14.7201L10.5563 14.5317C10.5613 14.2911 10.6045 14.0491 10.6167 13.8086L10.6192 12.5879C10.6098 12.2926 10.5715 11.9915 10.5384 11.6978C10.387 10.3538 10.0352 8.5536 9.48704 7.30067L6.06083 12.0435C6.01415 12.1112 6.00743 12.1579 5.91915 12.158L4.67997 12.1603C4.65486 10.2448 5.62685 8.6911 7.07915 7.48524L7.37665 7.25942C7.42224 7.22673 7.44548 7.19696 7.50212 7.17989L2.35077 7.19212L2.3589 7.14091C2.38606 6.9838 2.44896 6.83653 2.52112 6.69524C3.31309 5.14442 5.61415 4.90075 7.19818 5.00087C7.59169 5.02571 7.97603 5.0854 8.36392 5.15321L5.27556 2.84669C4.85536 2.53033 4.42091 2.24363 4.04364 1.87457C4.41693 1.57079 5.01372 1.42104 5.48458 1.41242C6.89939 1.29379 8.43321 2.24171 9.32876 3.2587C9.59263 3.55833 9.81704 3.88252 10.0463 4.20852C11.1067 2.44814 13.4294 0.915118 15.5127 1.59131C15.745 1.6667 15.9675 1.76492 16.157 1.92144C16.0612 1.97685 15.9742 2.04899 15.8862 2.11586L12.219 4.80317C12.0694 4.91349 11.92 5.01755 11.7802 5.14052L12.4416 5.04794C14.1934 4.85708 16.9122 5.00935 17.5913 7.00942C17.608 7.05864 17.6095 7.11817 17.6333 7.16376L17.6419 7.17935C17.5234 7.1938 17.3911 7.18274 17.2712 7.1831L12.8852 7.18071C12.8 7.1797 12.7049 7.15942 12.6229 7.16442L12.7482 7.25067C14.0973 8.20153 15.1882 9.5722 15.4708 11.229L15.5011 11.4507C15.5427 11.6745 15.5355 11.9171 15.5381 12.144C15.4693 12.1695 15.3448 12.1561 15.2694 12.1563L14.4182 12.1574C14.1374 12.157 14.1464 12.0479 13.9807 11.8102L11.515 8.34415C11.2746 8.02591 11.0172 7.71149 10.7968 7.37927L11.3915 9.29208Z" fill="#4B95E3"/>
<path d="M9.92157 18.6858L2.46912 18.6835C2.50926 18.6276 2.60159 18.4005 2.66519 18.2984C4.03688 16.0969 6.82782 14.6869 9.40845 14.6743C9.44477 14.6664 9.50102 14.674 9.53907 14.6741L9.87915 14.6746C10.2195 14.6757 10.5557 14.7137 10.8922 14.7627C13.1482 15.0912 15.5924 16.3575 16.7145 18.4195C16.7615 18.5059 16.7911 18.6003 16.8433 18.6822L9.92157 18.6858Z" fill="#4B95E3"/>
</svg>
