<svg width="22" height="23" viewBox="0 0 22 23" fill="none" xmlns="http://www.w3.org/2000/svg">
<path d="M18.5625 19.9389C18.4722 19.9391 18.3828 19.9212 18.2994 19.8862C18.216 19.8512 18.1402 19.7999 18.0765 19.7352L2.95153 4.44721C2.82804 4.31583 2.76021 4.14089 2.76251 3.95968C2.7648 3.77847 2.83704 3.60534 2.96382 3.4772C3.09059 3.34906 3.26188 3.27604 3.44115 3.27372C3.62042 3.2714 3.7935 3.33996 3.92348 3.46478L19.0485 18.7528C19.1446 18.85 19.21 18.9738 19.2365 19.1085C19.263 19.2433 19.2494 19.383 19.1974 19.5099C19.1454 19.6368 19.0573 19.7454 18.9443 19.8217C18.8313 19.8981 18.6984 19.9389 18.5625 19.9389ZM10.6563 14.1994L8.4309 11.9501C8.41815 11.9373 8.40176 11.9289 8.38403 11.926C8.3663 11.9231 8.34812 11.9259 8.33205 11.934C8.31598 11.9421 8.30282 11.9551 8.29442 11.9711C8.28603 11.9872 8.28282 12.0055 8.28524 12.0235C8.37508 12.607 8.64617 13.1466 9.05932 13.5642C9.47248 13.9818 10.0063 14.2558 10.5836 14.3466C10.6014 14.3491 10.6195 14.3458 10.6354 14.3374C10.6513 14.3289 10.6641 14.3156 10.6721 14.2993C10.6802 14.2831 10.6829 14.2647 10.6801 14.2468C10.6772 14.2289 10.6689 14.2123 10.6563 14.1994ZM11.3438 9.00061L13.5725 11.2526C13.5853 11.2655 13.6017 11.2741 13.6195 11.2771C13.6373 11.2801 13.6556 11.2773 13.6718 11.2692C13.688 11.261 13.7012 11.248 13.7096 11.2318C13.718 11.2157 13.7212 11.1972 13.7186 11.1792C13.629 10.5948 13.3577 10.0544 12.9441 9.6363C12.5304 9.21816 11.9958 8.94395 11.4177 8.85338C11.3998 8.85058 11.3814 8.85358 11.3653 8.86194C11.3492 8.8703 11.3361 8.88359 11.3279 8.89992C11.3197 8.91625 11.3168 8.93478 11.3197 8.95286C11.3225 8.97094 11.331 8.98765 11.3438 9.00061Z" fill="black"/>
<path d="M21.0977 12.354C21.2399 12.1283 21.3151 11.8661 21.3144 11.5985C21.3136 11.3309 21.2369 11.0691 21.0934 10.8443C19.9564 9.06706 18.4813 7.55737 16.8278 6.47809C14.9961 5.28284 12.9766 4.65091 10.9862 4.65091C9.93699 4.65236 8.89488 4.82528 7.90023 5.16297C7.87239 5.17233 7.84739 5.18873 7.8276 5.21062C7.80781 5.23251 7.79389 5.25916 7.78717 5.28803C7.78045 5.31689 7.78115 5.34702 7.78921 5.37553C7.79727 5.40404 7.81241 5.43 7.8332 5.45092L9.86304 7.50264C9.88413 7.524 9.91036 7.53943 9.93914 7.54743C9.96792 7.55542 9.99826 7.55571 10.0272 7.54825C10.7152 7.37877 11.4348 7.39119 12.1168 7.58431C12.7987 7.77743 13.4199 8.14475 13.9207 8.6509C14.4214 9.15705 14.7848 9.78499 14.9759 10.4743C15.1669 11.1635 15.1792 11.8909 15.0116 12.5863C15.0043 12.6155 15.0046 12.6461 15.0125 12.6751C15.0204 12.7041 15.0356 12.7305 15.0567 12.7518L17.9764 15.7052C18.0068 15.7359 18.0475 15.7541 18.0904 15.756C18.1334 15.7579 18.1755 15.7435 18.2084 15.7156C19.3323 14.7473 20.3062 13.6142 21.0977 12.354ZM11 15.7695C10.3756 15.7695 9.75925 15.6262 9.19755 15.3505C8.63586 15.0747 8.14344 14.6737 7.75741 14.1775C7.37138 13.6814 7.10182 13.1032 6.96907 12.4864C6.83631 11.8697 6.84381 11.2305 6.99101 10.6171C6.99831 10.588 6.99799 10.5574 6.99008 10.5284C6.98218 10.4994 6.96695 10.4729 6.9459 10.4517L4.07386 7.54738C4.04341 7.51656 4.00262 7.49843 3.95956 7.49658C3.91651 7.49473 3.87434 7.50929 3.8414 7.53739C2.7934 8.44121 1.82187 9.5409 0.933709 10.8261C0.778241 11.0516 0.692619 11.3188 0.687722 11.5936C0.682826 11.8685 0.758876 12.1386 0.906209 12.3696C2.04101 14.1647 3.50109 15.6765 5.12918 16.741C6.96351 17.9411 8.93406 18.5491 10.9862 18.5491C12.0461 18.5462 13.099 18.377 14.1075 18.0475C14.1356 18.0384 14.1609 18.0222 14.181 18.0004C14.2011 17.9786 14.2153 17.9519 14.2222 17.9229C14.2292 17.894 14.2286 17.8637 14.2207 17.835C14.2127 17.8063 14.1975 17.7801 14.1767 17.7591L12.137 15.6978C12.1159 15.6765 12.0898 15.6611 12.0611 15.6531C12.0324 15.6451 12.0021 15.6448 11.9732 15.6522C11.6546 15.7302 11.3279 15.7696 11 15.7695Z" fill="black"/>
</svg>
